<svg width="26" height="26" viewBox="0 0 26 26" fill="none" xmlns="http://www.w3.org/2000/svg">
<path d="M12.9999 1.54972e-06C5.82022 1.54972e-06 0 5.82046 0 13.0001C0 20.1798 5.82022 26 12.9999 26C20.1796 26 26 20.1798 26 13.0001C26 5.82046 20.1796 1.54972e-06 12.9999 1.54972e-06ZM12.9999 1.89669C19.1224 1.89669 24.1033 6.87762 24.1033 13.0001C24.1033 19.1226 19.1224 24.1033 12.9999 24.1033C6.87763 24.1033 1.89669 19.1226 1.89669 13.0001C1.89669 6.87762 6.87763 1.89669 12.9999 1.89669Z" fill="#4A4949"/>
<path d="M10.2338 16.2225H7.9152V13.5501H10.3461C10.3461 13.5501 11.2262 13.537 11.2262 14.9233C11.2262 16.0803 10.5823 16.2103 10.2338 16.2225ZM7.9152 9.77714H10.3461C10.3461 9.77714 10.9364 9.77714 10.9364 10.818C10.9364 11.8576 10.5889 12.0082 10.1955 12.0095H7.9152V9.77714ZM11.4349 12.5657C11.4349 12.5657 12.7089 12.452 12.7089 10.663C12.7089 8.87322 11.6668 8 10.3461 8H6V17.9996H10.3461C10.3461 17.9996 12.9983 18.0999 12.9983 15.0476C12.9983 15.0476 13.1143 12.5657 11.4349 12.5657Z" fill="#4A4949"/>
<path d="M15 10H19V9H15V10Z" fill="#4A4949"/>
<path d="M15.0227 13.7447C15.0227 13.7447 15.2269 12.3368 16.6978 12.3368C18.1686 12.3368 18.15 13.7447 18.15 13.7447H15.0227ZM16.6601 11C12.9993 11 13.0033 14.5078 13.0033 14.5078C13.0033 14.5078 12.7519 17.9974 16.6611 17.9974C16.6611 17.9974 19.9183 18.1769 19.9183 15.5697H18.2433C18.2433 15.5697 18.2985 16.5518 16.7167 16.5518C16.7167 16.5518 15.0413 16.6592 15.0413 14.9633H19.9742C19.9742 14.9633 20.5138 11 16.6601 11Z" fill="#4A4949"/>
</svg>
