<svg width="26" height="26" viewBox="0 0 26 26" fill="none" xmlns="http://www.w3.org/2000/svg">
<path d="M12.9999 1.54972e-06C5.82022 1.54972e-06 0 5.82021 0 12.9999C0 20.1795 5.82022 26 12.9999 26C20.1798 26 26 20.1795 26 12.9999C26 5.82021 20.1798 1.54972e-06 12.9999 1.54972e-06ZM12.9999 1.89669C19.1224 1.89669 24.1033 6.87762 24.1033 12.9999C24.1033 19.1224 19.1224 24.1033 12.9999 24.1033C6.87762 24.1033 1.89669 19.1224 1.89669 12.9999C1.89669 6.87762 6.87762 1.89669 12.9999 1.89669Z" fill="#4A4949"/>
<path d="M15.7659 13.0052H13.9569V21H11.2753V13.0052H10V10.1809H11.2753V8.35344C11.2753 7.0465 11.7761 5 13.9808 5L15.9672 5.0106V7.75177H14.5258C14.2894 7.75177 13.9569 7.8983 13.9569 8.52143V10.1836H16L15.7659 13.0052Z" fill="#4A4949"/>
</svg>
