<svg width="26" height="26" viewBox="0 0 26 26" fill="none" xmlns="http://www.w3.org/2000/svg">
<path d="M13 -4.84784e-07C5.82027 -4.84784e-07 0 5.8204 0 13C0 20.1798 5.82027 26 13 26C20.1797 26 26 20.1798 26 13C26 5.8204 20.1797 -4.84784e-07 13 -4.84784e-07ZM13 2.13375C18.9917 2.13375 23.8662 7.00818 23.8662 13C23.8662 18.9916 18.9917 23.8662 13 23.8662C7.00832 23.8662 2.13379 18.9916 2.13379 13C2.13379 7.00818 7.00832 2.13375 13 2.13375Z" fill="#4A4949"/>
<path d="M17.7989 9.70119C17.7989 9.87974 17.6789 9.99978 17.5001 9.99978H16.2988C16.12 9.99978 16 9.87974 16 9.70119V8.49989C16 8.32155 16.12 8.20129 16.2988 8.20129H17.5001C17.6789 8.20129 17.7989 8.32155 17.7989 8.49989V9.70119ZM8.49989 17.7985C8.32112 17.7985 8.20108 17.6784 8.20108 17.5001V12.3994H9.4611C9.39935 12.5805 9.39935 12.8214 9.39935 12.9998C9.39935 14.9809 11.0195 16.6006 13 16.6006C14.9803 16.6006 16.6007 14.9809 16.6007 12.9998C16.6007 12.8214 16.6006 12.5805 16.5391 12.3994H17.7989V17.5001C17.7989 17.6784 17.6789 17.7985 17.5001 17.7985H8.49989ZM13 10.6004C14.3213 10.6004 15.3996 11.6782 15.3996 12.9998C15.3996 14.3209 14.3213 15.3991 13 15.3991C11.6789 15.3991 10.6004 14.3209 10.6004 12.9998C10.6004 11.6782 11.6789 10.6004 13 10.6004ZM17.7989 7H8.20108C7.53911 7 7 7.5389 7 8.20129V17.7985C7 18.4607 7.53911 19 8.20108 19H17.7989C18.4611 19 19 18.4607 19 17.7985V8.20129C19 7.5389 18.4611 7 17.7989 7Z" fill="#4A4949"/>
</svg>
