<svg width="26" height="26" viewBox="0 0 26 26" fill="none" xmlns="http://www.w3.org/2000/svg">
<path d="M13 1.54972e-06C5.82016 1.54972e-06 0 5.82021 0 12.9999C0 20.1795 5.82016 26 13 26C20.1796 26 26 20.1795 26 12.9999C26 5.82021 20.1796 1.54972e-06 13 1.54972e-06ZM13 1.89669C19.1224 1.89669 24.1033 6.87762 24.1033 12.9999C24.1033 19.1224 19.1224 24.1033 13 24.1033C6.87756 24.1033 1.89667 19.1224 1.89667 12.9999C1.89667 6.87762 6.87756 1.89669 13 1.89669Z" fill="#4A4949"/>
<path d="M6.65589 19.2109H9.65476V10.1886H6.65589V19.2109ZM8.17512 5.83955C7.14879 5.83955 6.4776 6.51287 6.4776 7.39791C6.4776 8.26446 7.12958 8.95723 8.13577 8.95723H8.1552C9.20145 8.95723 9.85201 8.26446 9.85201 7.39791C9.8321 6.51287 9.20145 5.83955 8.17512 5.83955ZM20.4705 14.0368V19.2109H17.4709V14.3839C17.4709 13.1717 17.0378 12.344 15.9517 12.344C15.1229 12.344 14.6304 12.9014 14.413 13.441C14.3341 13.6337 14.3137 13.9014 14.3137 14.1722V19.2109H11.3134C11.3134 19.2109 11.3537 11.035 11.3134 10.1886H14.3137V11.467L14.2938 11.4966H14.3137V11.467C14.7122 10.8537 15.4232 9.97669 17.0171 9.97669C18.9909 9.97669 20.4705 11.2662 20.4705 14.0368Z" fill="#4A4949"/>
</svg>
