<svg width="26" height="26" viewBox="0 0 26 26" fill="none" xmlns="http://www.w3.org/2000/svg">
<g clip-path="url(#clip0)">
<path d="M13 -4.84784e-07C5.82028 -4.84784e-07 0 5.82016 0 13C0 20.1798 5.82028 26 13 26C20.1797 26 26 20.1798 26 13C26 5.82016 20.1797 -4.84784e-07 13 -4.84784e-07ZM13 1.89667C19.1223 1.89667 24.1033 6.87756 24.1033 13C24.1033 19.1224 19.1223 24.1033 13 24.1033C6.87769 24.1033 1.8967 19.1224 1.8967 13C1.8967 6.87756 6.87769 1.89667 13 1.89667Z" fill="#4A4949"/>
<path d="M21 8.42038C20.448 8.66143 19.8547 8.82439 19.2322 8.89725C19.8676 8.52225 20.3553 7.9291 20.5856 7.22143C19.991 7.56872 19.3321 7.82068 18.6314 7.95637C18.0701 7.3678 17.2703 7 16.3845 7C14.6852 7 13.3072 8.35646 13.3072 10.0292C13.3072 10.2668 13.3345 10.498 13.3872 10.7197C10.8296 10.5934 8.56206 9.38744 7.04402 7.55432C6.77919 8.00153 6.62717 8.52225 6.62717 9.07744C6.62717 10.1281 7.17078 11.0556 7.99628 11.599C7.49211 11.5831 7.01721 11.447 6.60257 11.2197L6.60213 11.2581C6.60213 12.726 7.66342 13.95 9.07109 14.2282C8.81292 14.2978 8.54078 14.3349 8.26022 14.3349C8.06166 14.3349 7.86908 14.3159 7.68115 14.2808C8.07296 15.4839 9.20916 16.3597 10.5561 16.3842C9.50258 17.197 8.17579 17.6811 6.73376 17.6811C6.48556 17.6811 6.24023 17.6669 6 17.6387C7.36136 18.4987 8.97912 19 10.717 19C16.3776 19 19.4733 14.3842 19.4733 10.3805C19.4733 10.2491 19.4702 10.1185 19.4642 9.98866C20.0659 9.56152 20.5874 9.02793 21 8.42038Z" fill="#4A4949"/>
</g>
<defs>
<clipPath id="clip0">
<rect width="26" height="26" fill="white"/>
</clipPath>
</defs>
</svg>
