<svg width="26" height="26" fill="none" xmlns="http://www.w3.org/2000/svg"><path d="M13 0C5.82 0 0 5.82 0 13s5.82 13 13 13 13-5.82 13-13S20.18 0 13 0zm0 1.897c6.122 0 11.103 4.98 11.103 11.103 0 6.123-4.98 11.103-11.103 11.103-6.122 0-11.103-4.98-11.103-11.103C1.897 6.878 6.877 1.897 13 1.897z" fill="#4A4949"/><path d="M10.234 16.223H7.915V13.55h2.431s.88-.013.88 1.373c0 1.157-.644 1.287-.992 1.3zM7.915 9.777h2.431s.59 0 .59 1.041c0 1.04-.347 1.19-.74 1.191h-2.28V9.777zm3.52 2.789s1.274-.114 1.274-1.903c0-1.79-1.042-2.663-2.363-2.663H6v10h4.346s2.652.1 2.652-2.952c0 0 .116-2.482-1.563-2.482zM15 10h4V9h-4v1z" fill="#4A4949"/><path d="M15.023 13.745s.204-1.408 1.675-1.408c1.47 0 1.452 1.408 1.452 1.408h-3.127zM16.66 11c-3.66 0-3.657 3.508-3.657 3.508s-.251 3.49 3.658 3.49c0 0 3.257.179 3.257-2.428h-1.675s.056.982-1.526.982c0 0-1.676.107-1.676-1.589h4.933S20.514 11 16.66 11z" fill="#4A4949"/></svg>