<svg width="26" height="26" fill="none" xmlns="http://www.w3.org/2000/svg"><path d="M13 0C5.82 0 0 5.82 0 13s5.82 13 13 13 13-5.82 13-13S20.18 0 13 0zm0 1.897c6.122 0 11.103 4.98 11.103 11.103 0 6.122-4.98 11.103-11.103 11.103-6.122 0-11.103-4.98-11.103-11.103C1.897 6.878 6.877 1.897 13 1.897z" fill="#4A4949"/><path d="M15.766 13.005h-1.81V21h-2.68v-7.995H10v-2.824h1.275V8.353c0-1.306.501-3.353 2.706-3.353l1.986.01v2.742h-1.441c-.237 0-.57.146-.57.77v1.662H16l-.234 2.821z" fill="#4A4949"/></svg>