<svg width="26" height="26" fill="none" xmlns="http://www.w3.org/2000/svg"><path d="M13 0C5.82 0 0 5.82 0 13s5.82 13 13 13 13-5.82 13-13S20.18 0 13 0zm0 2.134c5.992 0 10.866 4.874 10.866 10.866S18.992 23.866 13 23.866 2.134 18.992 2.134 13 7.008 2.134 13 2.134z" fill="#4A4949"/><path d="M17.799 9.701c0 .179-.12.299-.299.299h-1.2c-.18 0-.3-.12-.3-.3V8.5c0-.178.12-.299.299-.299H17.5c.179 0 .299.12.299.299v1.2zm-9.3 8.098c-.178 0-.298-.12-.298-.299v-5.1h1.26c-.062.18-.062.421-.062.6A3.61 3.61 0 0 0 13 16.6c1.98 0 3.6-1.62 3.6-3.6 0-.179 0-.42-.06-.6h1.259v5.1c0 .178-.12.299-.299.299h-9zM13 10.6c1.321 0 2.4 1.078 2.4 2.4 0 1.32-1.079 2.4-2.4 2.4a2.405 2.405 0 0 1-2.4-2.4c0-1.322 1.079-2.4 2.4-2.4zM17.799 7H8.2C7.54 7 7 7.539 7 8.201V17.8c0 .66.54 1.2 1.201 1.2H17.8c.66 0 1.2-.54 1.2-1.201V8.2c0-.66-.539-1.2-1.201-1.2z" fill="#4A4949"/></svg>