<svg width="26" height="26" fill="none" xmlns="http://www.w3.org/2000/svg"><path d="M13 0C5.82 0 0 5.82 0 13s5.82 13 13 13 13-5.82 13-13S20.18 0 13 0zm0 1.897c6.122 0 11.103 4.98 11.103 11.103 0 6.122-4.98 11.103-11.103 11.103-6.122 0-11.103-4.98-11.103-11.103C1.897 6.878 6.877 1.897 13 1.897z" fill="#4A4949"/><path d="M6.656 19.21h2.999v-9.02h-3v9.022zm1.52-13.37c-1.027 0-1.698.673-1.698 1.558 0 .866.652 1.56 1.658 1.56h.02c1.045 0 1.696-.694 1.696-1.56-.02-.885-.65-1.558-1.677-1.558zm12.295 8.197v5.174h-3v-4.827c0-1.212-.433-2.04-1.52-2.04-.828 0-1.32.557-1.538 1.097-.079.193-.1.46-.1.731v5.039h-3s.04-8.176 0-9.022h3v1.278l-.02.03h.02v-.03c.4-.613 1.11-1.49 2.704-1.49 1.974 0 3.454 1.29 3.454 4.06z" fill="#4A4949"/></svg>