<svg width="26" height="26" fill="none" xmlns="http://www.w3.org/2000/svg"><g clip-path="url(#clip0)" fill="#4A4949"><path d="M13 0C5.82 0 0 5.82 0 13s5.82 13 13 13 13-5.82 13-13S20.18 0 13 0zm0 1.897c6.122 0 11.103 4.98 11.103 11.103 0 6.122-4.98 11.103-11.103 11.103-6.122 0-11.103-4.98-11.103-11.103C1.897 6.878 6.877 1.897 13 1.897z"/><path d="M21 8.42a6.216 6.216 0 0 1-1.768.477 3.049 3.049 0 0 0 1.354-1.676c-.595.348-1.254.6-1.955.735A3.097 3.097 0 0 0 16.384 7c-1.699 0-3.077 1.356-3.077 3.03 0 .237.027.468.08.69a8.783 8.783 0 0 1-6.343-3.166 2.98 2.98 0 0 0-.417 1.523c0 1.051.544 1.979 1.37 2.522a3.099 3.099 0 0 1-1.394-.38v.04c0 1.467 1.06 2.691 2.468 2.97a3.113 3.113 0 0 1-1.39.052 3.075 3.075 0 0 0 2.875 2.103 6.237 6.237 0 0 1-3.822 1.297c-.248 0-.494-.014-.734-.042A8.804 8.804 0 0 0 10.717 19c5.66 0 8.756-4.616 8.756-8.62 0-.13-.003-.262-.009-.391A6.195 6.195 0 0 0 21 8.42z"/></g><defs><clipPath id="clip0"><path fill="#fff" d="M0 0h26v26H0z"/></clipPath></defs></svg>